#!OML:ASF I:\golf\golf\golf 2\Subject 1\2002-09-07\Subject1.ASF
:FULLY-SPECIFIED
:DEGREES
362
root -0.521515 17.9433 -3.1265 24.7925 25.9187 2.05809
lowerback 21.6329 2.82386 5.15825
upperback 7.50076 5.35979 8.29402
thorax -4.21522 2.64302 4.70063
lowerneck -17.2202 -10.4022 -3.78938
upperneck -5.39871 -13.223 6.61073
head 1.91209 -6.41295 1.81783
rclavicle 1.27222e-014 -2.38542e-014
rhumerus -29.7834 7.57954 -61.8983
rradius 21.6182
rwrist -7.59033
rhand -13.6714 5.76999
rfingers 7.12502
rthumb 12.446 -23.8394
lclavicle 1.27222e-014 -2.38542e-014
lhumerus -37.0822 -49.5929 108.827
lradius 51.6637
lwrist 1.30124
lhand -30.695 16.3234
lfingers 7.12502
lthumb -3.98865 46.2658
rfemur -47.0067 -5.21527 21.4767
rtibia 34.0976
rfoot -7.71815 -8.25872
rtoes 15.3603
lfemur -31.9428 -1.89439 -10.0498
ltibia 33.181
lfoot -17.2695 -11.4647
ltoes -19.0915
363
root -0.475282 17.9352 -3.14517 24.1588 25.4132 1.79051
lowerback 21.2408 2.78155 4.97806
upperback 7.38418 5.23032 8.18236
thorax -4.14049 2.58041 4.72426
lowerneck -17.4806 -10.3197 -3.90442
upperneck -5.07681 -13.0926 6.62479
head 2.07269 -6.33222 1.83222
rclavicle -3.18055e-014 -1.90833e-014
rhumerus -30.0349 7.40982 -61.8479
rradius 21.903
rwrist -7.99812
rhand -14.578 6.11947
rfingers 7.12502
rthumb 11.5718 -23.5411
lclavicle -3.18055e-014 -1.90833e-014
lhumerus -36.9705 -49.206 108.655
lradius 51.3205
lwrist 1.19796
lhand -30.2925 16.6467
lfingers 7.12502
lthumb -3.59989 46.596
rfemur -46.5341 -5.02419 21.451
rtibia 34.2456
rfoot -7.8148 -7.97963
rtoes 15.419
lfemur -31.5191 -1.99932 -10.098
ltibia 33.3851
lfoot -17.558 -11.7095
ltoes -20.3459
364
root -0.428115 17.9286 -3.16049 23.4514 24.9402 1.43547
lowerback 20.9461 2.69493 4.90005
upperback 7.23151 5.07894 8.08549
thorax -4.14496 2.506 4.70678
lowerneck -17.8317 -10.2178 -4.08518
upperneck -4.60064 -12.9283 6.70115
head 2.31299 -6.22716 1.87375
rclavicle 3.81667e-014 1.06549e-013
rhumerus -30.2225 7.04321 -61.7475
rradius 22.1542
rwrist -8.43333
rhand -15.4942 6.46558
rfingers 7.12502
rthumb 10.688 -23.2426
lclavicle 3.81667e-014 1.06549e-013
lhumerus -36.965 -48.7512 108.5
lradius 51.1082
lwrist 1.37114
lhand -29.5978 17.0828
lfingers 7.12502
lthumb -2.92901 47.0425
rfemur -45.9848 -4.9038 21.5713
rtibia 34.3701
rfoot -7.86577 -7.60514
rtoes 15.2722
lfemur -31.0405 -2.05026 -10.0684
ltibia 33.5942
lfoot -17.8595 -11.8208
ltoes -20.8564
365
root -0.377998 17.9175 -3.17581 22.7489 24.4037 1.06194
lowerback 20.6234 2.66011 4.87529
upperback 7.06955 4.99913 7.94862
thorax -4.13998 2.46641 4.59818
lowerneck -17.9925 -10.1162 -4.12029
upperneck -4.31704 -12.7903 6.75296
head 2.44139 -6.14509 1.89561
rclavicle 3.65764e-014 5.08889e-014
rhumerus -30.4752 6.49321 -61.6379
rradius 22.5026
rwrist -9.13168
rhand -16.2894 6.66467
rfingers 7.12502
rthumb 9.92093 -23.0816
lclavicle 3.65764e-014 5.08889e-014
lhumerus -37.1046 -48.4136 108.363
lradius 51.0033
lwrist 1.38808
lhand -28.8693 17.556
lfingers 7.12502
lthumb -2.22549 47.5241
rfemur -45.4565 -4.90613 21.7778
rtibia 34.4509
rfoot -7.85312 -7.03502
rtoes 13.964
lfemur -30.5137 -2.13877 -9.98866
ltibia 33.8059
lfoot -17.7399 -12.1402
ltoes -19.4061
366
root -0.32904 17.9103 -3.18937 22.1051 23.8914 0.761491
lowerback 20.2158 2.6191 4.74781
upperback 6.92927 4.88593 7.84932
thorax -4.07752 2.41147 4.60024
lowerneck -18.0864 -9.99328 -4.17018
upperneck -4.15204 -12.6177 6.78083
head 2.51396 -6.05003 1.92195
rclavicle 3.18055e-014 -2.38542e-014
rhumerus -30.7082 6.15476 -61.545
rradius 22.9077
rwrist -9.95957
rhand -17.5215 6.95619
rfingers 7.12502
rthumb 8.73209 -22.8432
lclavicle 3.18055e-014 -2.38542e-014
lhumerus -37.1976 -47.9966 108.213
lradius 50.832
lwrist 1.32333
lhand -28.3224 17.6007
lfingers 7.12502
lthumb -1.69728 47.5737
rfemur -44.9318 -4.78507 21.8459
rtibia 34.4921
rfoot -7.72868 -6.67299
rtoes 12.1449
lfemur -30.0291 -2.22931 -9.95813
ltibia 34.0271
lfoot -17.4099 -12.5941
ltoes -17.2628
367
root -0.283497 17.9054 -3.20099 21.3718 23.4265 0.366643
lowerback 19.8574 2.55254 4.60063
upperback 6.82222 4.74811 7.8641
thorax -4.01376 2.34469 4.74249
lowerneck -18.251 -9.84683 -4.30213
upperneck -3.90028 -12.3981 6.76359
head 2.62974 -5.92973 1.94753
rclavicle 4.13472e-014 3.33958e-014
rhumerus -30.8401 5.73476 -61.3174
rradius 23.3704
rwrist -10.6532
rhand -18.8472 7.54434
rfingers 7.12502
rthumb 7.45263 -22.3044
lclavicle 4.13472e-014 3.33958e-014
lhumerus -37.1321 -47.3994 108.026
lradius 50.6632
lwrist 1.15101
lhand -26.8204 18.4472
lfingers 7.12502
lthumb -0.246609 48.4268
rfemur -44.311 -4.43098 21.9268
rtibia 34.522
rfoot -7.61387 -6.5585
rtoes 11.4028
lfemur -29.4963 -2.16101 -9.85336
ltibia 34.2555
lfoot -17.0625 -12.7451
ltoes -15.4812
368
root -0.238384 17.8957 -3.21722 20.5848 22.9611 -0.117035
lowerback 19.5455 2.50892 4.54226
upperback 6.75261 4.6608 7.92044
thorax -3.93144 2.30279 4.86669
lowerneck -18.4965 -9.7297 -4.36384
upperneck -3.61372 -12.2258 6.63273
head 2.75962 -5.83661 1.91583
rclavicle 3.18055e-014 2.54444e-014
rhumerus -30.8591 5.0154 -60.9602
rradius 23.8507
rwrist -11.3775
rhand -19.5953 8.18775
rfingers 7.12502
rthumb 6.73046 -21.6853
lclavicle 3.18055e-014 2.54444e-014
lhumerus -36.8647 -46.8566 107.763
lradius 50.4646
lwrist 0.735241
lhand -27.1604 17.8572
lfingers 7.12502
lthumb -0.575027 47.8362
rfemur -43.6806 -4.11575 22.1244
rtibia 34.5642
rfoot -7.64732 -6.32208
rtoes 11.1861
lfemur -28.8846 -2.00057 -9.68545
ltibia 34.496
lfoot -16.6677 -12.3358
ltoes -14.2338
369
root -0.193083 17.8854 -3.2365 19.9238 22.5355 -0.519803
lowerback 19.1782 2.4573 4.54421
upperback 6.63476 4.56701 7.8933
thorax -3.85929 2.25765 4.86717
lowerneck -18.7045 -9.60664 -4.24357
upperneck -3.38847 -12.0783 6.44176
head 2.84393 -5.76193 1.83428
rclavicle 7.63333e-014 -1.59028e-014
rhumerus -30.9198 4.22671 -60.6961
rradius 24.3403
rwrist -12.2821
rhand -19.9963 8.69854
rfingers 7.12502
rthumb 6.3434 -21.1865
lclavicle 7.63333e-014 -1.59028e-014
lhumerus -36.66 -46.4087 107.517
lradius 50.1382
lwrist 0.640994
lhand -25.6747 18.701
lfingers 7.12502
lthumb 0.859936 48.679
rfemur -43.1673 -3.91508 22.2866
rtibia 34.6135
rfoot -7.70784 -6.06069
rtoes 11.0919
lfemur -28.3663 -1.87823 -9.56806
ltibia 34.7872
lfoot -16.2859 -11.8474
ltoes -13.5312
370
root -0.145906 17.8769 -3.25467 19.3446 22.109 -0.769757
lowerback 18.7824 2.38605 4.46676
upperback 6.47686 4.43013 7.80222
thorax -3.81321 2.1909 4.85193
lowerneck -18.8315 -9.46443 -4.07584
upperneck -3.17822 -11.9187 6.27192
head 2.90692 -5.68273 1.75662
rclavicle 6.52014e-014 4.92986e-014
rhumerus -31.0202 3.61344 -60.5662
rradius 24.7449
rwrist -13.1147
rhand -20.7997 9.0767
rfingers 7.12502
rthumb 5.56773 -20.8302
lclavicle 6.52014e-014 4.92986e-014
lhumerus -36.5161 -45.7928 107.216
lradius 49.88
lwrist 0.446922
lhand -23.7372 19.855
lfingers 7.12502
lthumb 2.73118 49.8173
rfemur -42.6714 -3.79988 22.3173
rtibia 34.6397
rfoot -7.7402 -5.79783
rtoes 11.7131
lfemur -27.8581 -1.7393 -9.60352
ltibia 35.1364
lfoot -15.9421 -11.5894
ltoes -13.2194
371
root -0.096882 17.8709 -3.27351 18.7527 21.6538 -0.982866
lowerback 18.4124 2.28226 4.32624
upperback 6.3445 4.24336 7.74787
thorax -3.75691 2.09956 4.92244
lowerneck -18.9912 -9.31828 -4.0028
upperneck -2.90081 -11.7368 6.10649
head 3.00705 -5.59045 1.69606
rclavicle 4.77083e-014 1.11319e-014
rhumerus -31.0183 3.05735 -60.4451
rradius 25.1162
rwrist -13.7508
rhand -21.9742 9.46497
rfingers 7.12502
rthumb 4.43368 -20.4686
lclavicle 4.77083e-014 1.11319e-014
lhumerus -36.3826 -45.0135 106.93
lradius 49.6932
lwrist 0.390025
lhand -23.1531 20.1882
lfingers 7.12502
lthumb 3.29526 50.1425
rfemur -42.1227 -3.68803 22.2922
rtibia 34.623
rfoot -7.74456 -5.5038
rtoes 12.0285
lfemur -27.2911 -1.56289 -9.70957
ltibia 35.5004
lfoot -15.615 -11.7118
ltoes -12.2189
372
root -0.0494066 17.8706 -3.2903 18.0153 21.2464 -1.36562
lowerback 18.1343 2.15035 4.34953
upperback 6.24644 4.05712 7.73876
thorax -3.70248 2.00864 4.94615
lowerneck -19.4713 -9.13489 -3.82535
upperneck -2.14678 -11.5216 5.98805
head 2.92123 -5.46224 1.49012
rclavicle 4.77083e-014 9.70069e-014
rhumerus -31.0799 2.47089 -60.3968
rradius 25.7337
rwrist -14.5568
rhand -22.9603 9.73123
rfingers 7.12502
rthumb 3.4814 -20.2201
lclavicle 4.77083e-014 9.70069e-014
lhumerus -36.2153 -44.1939 106.661
lradius 49.431
lwrist 0.644389
lhand -21.4356 21.4428
lfingers 7.12502
lthumb 4.95372 51.3649
rfemur -41.4224 -3.46708 22.4056
rtibia 34.5601
rfoot -7.84121 -5.34182
rtoes 11.8284
lfemur -26.6163 -1.37467 -9.62828
ltibia 35.8493
lfoot -15.3497 -12.2936
ltoes -10.3705
